<mxfile host="app.diagrams.net" modified="2024-06-29T12:19:54.351Z" agent="Mozilla/5.0 (Windows NT 10.0; Win64; x64) AppleWebKit/537.36 (KHTML, like Gecko) Chrome/126.0.0.0 Safari/537.36" version="24.6.4" etag="ZohB-UndDj8zTKuQlNvD" type="github">
  <diagram name="Page-1" id="DaXnm9gcuo6u9cNrhD-V">
    <mxGraphModel>
      <root>
        <mxCell id="0" />
        <mxCell id="1" parent="0" />
      </root>
    </mxGraphModel>
  </diagram>
</mxfile>
